<!--?xml version="1.0" encoding="utf-8"?-->
<!-- Generator: Adobe Illustrator 18.1.1, SVG Export Plug-In . SVG Version: 6.00 Build 0)  -->

<svg version="1.1" id="_x31_0" xmlns="http://www.w3.org/2000/svg" xmlns:xlink="http://www.w3.org/1999/xlink" x="0px" y="0px" viewBox="0 0 512 512" style="width: 256px; height: 256px; opacity: 1;" xml:space="preserve">
<style type="text/css">
	.st0{fill:#374149;}
</style>
<g>
	<path class="st0" d="M503.68,249.5h-78.079c-4.562,0-8.32,3.68-8.32,8.321v27.199c0,10.321,8.398,18.641,18.718,18.641h57.36
		c10.321,0,18.641-8.32,18.641-18.641V257.82C512,253.18,508.242,249.5,503.68,249.5z M431.202,283.102h66.958v8.878h-66.958
		V283.102z" style="fill: rgb(255, 255, 255);"></path>
	<path class="st0" d="M218.615,250.172l14.676-29.648L139.92,32.014c-2.29-4.5-6.786-7.156-11.578-7.156
		c-1.918,0-3.836,0.442-5.68,1.328c-6.344,3.172-9,10.914-5.828,17.258L218.615,250.172z" style="fill: rgb(255, 255, 255);"></path>
	<path class="st0" d="M486.41,414.79c-1.7-11.137-13.055-18.883-24.118-16.301l-129.731,22.496l-36.906-74.5l-22.836-46.313
		l-0.055,0.113l-0.09-0.183l-14.676,29.946l69.032,140.204c5.164,10.398,15.562,16.89,27.214,16.89h0.59l101.262-10.477
		c7.742-0.144,15.414-2.874,21.832-7.742l5.602-4.352c5.754-4.351,8.629-11.43,7.523-18.586L486.41,414.79z" style="fill: rgb(255, 255, 255);"></path>
	<path class="st0" d="M374.48,43.42c3.121-6.32,0.48-14.082-5.84-17.203c-1.84-0.878-3.84-1.359-5.758-1.359
		c-4.722,0-9.281,2.641-11.523,7.121l-105.68,213.443l-14.719,29.758L158.721,421.02L28.958,398.462
		c-1.441-0.242-2.878-0.481-4.398-0.481c-9.523,0-18.242,7.122-19.679,16.801l-4.641,31.2c-1.122,7.121,1.758,14.238,7.438,18.558
		l5.679,4.402c6.402,4.879,14.082,7.598,21.844,7.758l101.278,10.402h0.558c11.684,0,22.082-6.48,27.203-16.882l81.438-165.278
		l14.64-29.762L374.48,43.42z M24.11,429.317c2.074-5.117,7.355-8.402,13.008-7.574c23.379,3.226,73.695,10.312,78.27,10.996
		c0.094,0.015,0.215,0.035,0.29,0.05c2.675,0.516-50.387,8.883-78.399,13.192c-8.242,1.281-15.282-5.84-13.922-14.082
		c0.122-0.691,0.321-1.348,0.543-1.988C23.97,429.712,24.036,429.513,24.11,429.317z" style="fill: rgb(255, 255, 255);"></path>
</g>
</svg>
